PathFileType	4	(X/Y/Z)	 s10c0401.trc
DataRate	CameraRate	NumFrames	NumMarkers	Units	OrigDataRate	OrigDataStartFrame	OrigNumFrames
200	200	4	50	mm	200	1001	2000
Frame#	Time	racr			lacr			c7			jug			rlel			rdr			llel			ldr			s2			lic			ric			lasi			rasi			rpsi			lpsi			rgt			lgt			rth1			rth2			rth3			rth4			rlfc			rmfc			rsh1			rsh2			rsh3			rsh4			rlmal			rmmal			rcal			rtoe			rmt5			lth1			lth2			lth4			lth3			llfc			lmfc			llmal			lmmal			lcal			lmt5			lsh1			lsh2			lsh3			lsh4			ltoe			SBIKE			LBIKE			RBIKE			
		X1	Y1	Z1	X2	Y2	Z2	X3	Y3	Z3	X4	Y4	Z4	X5	Y5	Z5	X6	Y6	Z6	X7	Y7	Z7	X8	Y8	Z8	X9	Y9	Z9	X10	Y10	Z10	X11	Y11	Z11	X12	Y12	Z12	X13	Y13	Z13	X14	Y14	Z14	X15	Y15	Z15	X16	Y16	Z16	X17	Y17	Z17	X18	Y18	Z18	X19	Y19	Z19	X20	Y20	Z20	X21	Y21	Z21	X22	Y22	Z22	X23	Y23	Z23	X24	Y24	Z24	X25	Y25	Z25	X26	Y26	Z26	X27	Y27	Z27	X28	Y28	Z28	X29	Y29	Z29	X30	Y30	Z30	X31	Y31	Z31	X32	Y32	Z32	X33	Y33	Z33	X34	Y34	Z34	X35	Y35	Z35	X36	Y36	Z36	X37	Y37	Z37	X38	Y38	Z38	X39	Y39	Z39	X40	Y40	Z40	X41	Y41	Z41	X42	Y42	Z42	X43	Y43	Z43	X44	Y44	Z44	X45	Y45	Z45	X46	Y46	Z46	X47	Y47	Z47	X48	Y48	Z48	X49	Y49	Z49	X50	Y50	Z50	
1001	5.0050	658.006582	1303.065723	24.511294	633.096815	1320.750081	-324.467887	639.783005	1361.995865	-141.119555	629.676191	1218.618724	-146.595612	504.121234	1072.228821	90.147135	626.197076	910.263337	14.451826	506.064574	1086.223425	-450.586309	646.257751	918.171765	-395.031275	115.907244	1161.256214	-127.094436	269.799296	1178.808150	-287.862523	311.396878	1126.576240	3.011891	285.244578	1085.700398	-272.552999	292.431768	1042.704702	-23.478417	170.115530	1197.263005	-62.534495	164.220407	1224.218561	-173.942218	171.629825	1027.604056	31.417342	166.434594	1072.868482	-344.168093	172.816368	891.687617	45.014399	195.456734	808.547161	23.707759	171.571429	728.253911	6.602288	232.987304	810.355828	17.931460	183.411542	626.031472	-22.053771	170.640488	625.096911	-139.113802	121.361766	529.921057	2.162641	122.955501	442.251358	-12.056871	81.483897	366.631225	-19.975813	153.821418	438.206191	-34.810187	59.185753	269.881198	-39.975668	82.581702	281.260713	-117.382670	10.104901	280.976635	-91.363976	204.597593	133.906678	-91.081132	119.565769	153.744695	-30.670694	259.507075	990.081627	-369.573257	343.730036	968.943838	-362.229833	360.313069	998.073764	-347.089541	408.107864	908.387578	-371.613580	501.854088	840.577726	-360.313604	501.839509	818.705602	-236.324258	192.363558	611.826513	-369.012992	204.056423	607.989098	-285.818858	122.492377	606.974144	-327.454247	252.793297	484.337012	-385.329982	401.337181	775.602213	-391.155651	352.660970	704.112039	-381.790191	270.304623	666.788205	-380.561895	370.899112	683.195559	-353.784654	334.264738	467.233771	-324.103352	-205.028093	834.399615	-223.971281	-78.338516	81.807971	-423.686855	-102.742425	80.467192	-24.372975	
1002	5.0100	656.928994	1305.061807	23.431121	637.215357	1319.538679	-325.915920	640.928605	1362.673631	-142.627089	630.403443	1219.589196	-147.729666	504.179085	1073.103157	88.105563	626.444016	910.278594	14.213890	506.164373	1086.234033	-451.085761	646.154125	918.187534	-395.274575	116.506260	1164.531056	-128.290629	270.297529	1180.214970	-289.225756	312.272637	1129.549506	1.491160	285.460023	1087.343014	-273.525493	292.898075	1045.621773	-24.391244	171.090744	1200.057124	-64.185754	164.656535	1227.326072	-175.637946	171.640327	1030.920641	30.574892	166.784876	1075.030833	-345.188896	171.832189	895.030904	44.423774	193.681632	811.633474	23.254942	169.090633	731.592243	6.383988	231.185234	813.133882	17.560984	179.523580	629.048060	-21.927184	167.972409	627.644411	-139.493863	117.224521	533.313542	1.894100	119.176358	445.540170	-11.924267	77.932544	369.902755	-19.917205	150.345456	441.641705	-34.216437	56.013092	272.908579	-39.865776	79.102843	284.219622	-116.984355	7.412561	285.077755	-91.346435	199.049802	134.362912	-91.345108	114.370864	155.746001	-30.984256	259.332506	991.733138	-369.843627	343.438530	970.261162	-362.376246	360.149903	999.405667	-347.493919	407.521527	909.295647	-371.342369	501.546904	841.547019	-359.788381	501.799757	820.183150	-235.607651	194.803701	608.555711	-368.503067	206.331784	605.011158	-285.547853	125.207453	602.261502	-327.366115	257.885309	482.505971	-385.251219	401.630381	775.516818	-390.278744	353.999517	703.279880	-381.380601	271.818470	665.019257	-380.347291	372.587216	682.414192	-353.463909	339.794892	467.300901	-323.711115	-205.043086	834.445889	-224.252363	-78.342459	81.798651	-423.684032	-102.748020	80.471800	-24.368602	
1003	5.0150	655.947413	1306.678311	22.338450	641.268051	1318.224998	-327.173778	641.926190	1362.921441	-143.559794	631.076167	1220.530043	-148.552890	504.232403	1074.001092	86.011361	626.626430	910.290321	13.872977	506.387442	1086.398062	-451.628005	646.056191	918.229925	-395.355044	116.375574	1168.484147	-128.876601	270.950949	1181.677908	-291.120330	313.027597	1132.679223	-0.057386	285.687323	1088.899346	-274.487318	293.307166	1048.632954	-24.986974	172.143289	1202.607935	-64.479911	165.347744	1230.178130	-177.393005	171.790516	1034.335616	29.745368	167.164375	1077.254887	-346.237982	171.029716	898.458659	43.711135	192.144039	814.828448	22.743260	166.921181	734.890498	5.949633	229.620820	815.930419	17.069857	176.149760	632.082440	-21.789003	165.707909	630.308013	-139.867025	113.406447	536.705030	1.561875	115.679549	448.939231	-11.738373	74.571528	373.120678	-19.947376	147.063887	444.846780	-33.671285	52.684119	276.132597	-39.837912	75.915031	286.996900	-116.873157	4.631434	289.178306	-91.537089	193.480236	135.098177	-91.573534	109.234678	158.032311	-31.200228	259.094775	993.436253	-370.399278	343.035880	971.478287	-362.688483	359.918558	1000.594992	-347.985023	406.756197	910.093874	-371.243233	500.950189	842.062431	-359.425453	501.507960	821.447468	-235.022445	197.318966	605.101673	-368.367494	208.387916	601.739733	-285.170622	127.405279	597.118058	-327.233869	262.849137	480.304448	-385.236084	401.654936	775.017776	-389.547701	354.356552	701.481895	-380.206289	273.470046	662.582819	-379.948980	373.879857	681.319421	-353.193832	345.169454	467.589042	-323.788949	-205.060859	834.405850	-223.985093	-78.340657	81.806718	-423.661961	-102.746232	80.470613	-24.375108	
1004	5.0200	654.963087	1308.181117	21.239135	645.260779	1316.887863	-328.311342	643.091240	1363.486764	-144.940138	631.743683	1221.405652	-149.497336	504.271072	1074.761839	83.950253	626.657482	910.247822	13.275581	506.851283	1086.567513	-452.106240	646.019746	918.335032	-395.366240	116.819166	1171.681642	-130.485301	271.398699	1183.167969	-292.657967	313.577061	1135.804302	-1.843285	285.910981	1090.426726	-275.561954	293.632350	1051.478846	-25.912532	173.167196	1205.906445	-66.365407	166.104621	1232.915954	-179.351296	172.029135	1037.667465	28.805271	167.530797	1079.452553	-347.262047	170.532765	901.828115	42.877660	190.989665	817.944530	22.199213	165.271476	738.138876	5.396932	228.462714	818.792212	16.452087	173.278499	635.171953	-21.747207	164.056639	632.864031	-140.185705	110.145493	540.192246	1.200021	112.390790	452.377346	-11.755243	71.373960	376.545270	-20.015555	144.077334	448.120342	-33.183878	49.236908	279.392202	-39.834443	73.004689	290.271515	-116.580529	1.598411	293.143683	-91.711957	188.035300	136.289472	-91.851271	104.150516	160.479987	-31.456704	258.833606	994.970797	-370.920885	342.641395	972.350083	-363.067210	359.693201	1001.535058	-348.592889	405.839426	910.369998	-371.151924	500.137456	842.271809	-359.095248	500.943633	822.368105	-234.618835	199.615081	601.264832	-368.246855	210.564144	598.096237	-284.814576	129.538262	591.629672	-327.067224	267.675062	478.007431	-385.282255	401.446535	774.060298	-388.942877	355.210465	699.861277	-379.893219	275.152555	659.673574	-379.358876	375.081601	679.865104	-352.943673	350.388844	467.477185	-323.853378	-205.058239	834.413022	-224.034502	-78.358606	81.831794	-423.660512	-102.755856	80.480840	-24.365212	
